<?xml version="1.0" encoding="UTF-8" standalone="no"?>
<!DOCTYPE svg PUBLIC "-//W3C//DTD SVG 1.1//EN"
 "http://www.w3.org/Graphics/SVG/1.1/DTD/svg11.dtd">
<!-- Generated by graphviz version 2.38.0 (20140413.2041)
 -->
<!-- Title: CarstvoWyrdSimple Pages: 1 -->
<svg width="605pt" height="1820pt"
 viewBox="0.00 0.00 605.34 1819.93" xmlns="http://www.w3.org/2000/svg" xmlns:xlink="http://www.w3.org/1999/xlink">
<g id="graph0" class="graph" transform="scale(1 1) rotate(0) translate(4 1815.93)">
<title>CarstvoWyrdSimple</title>
<polygon fill="white" stroke="none" points="-4,4 -4,-1815.93 601.339,-1815.93 601.339,4 -4,4"/>
<!-- begin -->
<g id="node1" class="node"><title>begin</title>
<polygon fill="#ffb90f" stroke="#ffb90f" points="352.109,-1755.81 292.931,-1755.81 274.644,-1811.88 256.357,-1755.81 197.179,-1755.81 245.055,-1721.15 226.768,-1665.07 274.644,-1699.73 322.52,-1665.07 304.233,-1721.15 352.109,-1755.81"/>
<text text-anchor="middle" x="274.644" y="-1734.78" font-family="Times,serif" font-size="14.00">Начало</text>
</g>
<!-- krai_lagernia_ogan -->
<g id="node2" class="node"><title>krai_lagernia_ogan</title>
<ellipse fill="seashell" stroke="black" cx="274.644" cy="-1611.03" rx="85.2851" ry="18"/>
<text text-anchor="middle" x="274.644" y="-1607.33" font-family="Times,serif" font-size="14.00">Край лагерния огън</text>
</g>
<!-- begin&#45;&gt;krai_lagernia_ogan -->
<g id="edge1" class="edge"><title>begin&#45;&gt;krai_lagernia_ogan</title>
<path fill="none" stroke="black" d="M274.644,-1699.5C274.644,-1680.15 274.644,-1657.06 274.644,-1639.46"/>
<polygon fill="black" stroke="black" points="278.144,-1639.29 274.644,-1629.29 271.144,-1639.29 278.144,-1639.29"/>
</g>
<!-- stalker -->
<g id="node3" class="node"><title>stalker</title>
<ellipse fill="aliceblue" stroke="black" cx="274.644" cy="-1539.03" rx="42.4939" ry="18"/>
<text text-anchor="middle" x="274.644" y="-1535.33" font-family="Times,serif" font-size="14.00">Сталкер</text>
</g>
<!-- krai_lagernia_ogan&#45;&gt;stalker -->
<g id="edge2" class="edge"><title>krai_lagernia_ogan&#45;&gt;stalker</title>
<path fill="none" stroke="black" d="M274.644,-1592.72C274.644,-1585.01 274.644,-1575.74 274.644,-1567.14"/>
<polygon fill="black" stroke="black" points="278.144,-1567.13 274.644,-1557.13 271.144,-1567.13 278.144,-1567.13"/>
</g>
<!-- varadaksor -->
<g id="node4" class="node"><title>varadaksor</title>
<ellipse fill="mistyrose" stroke="black" cx="334.644" cy="-1467.03" rx="54.6905" ry="18"/>
<text text-anchor="middle" x="334.644" y="-1463.33" font-family="Times,serif" font-size="14.00">Варадаксор</text>
</g>
<!-- krai_lagernia_ogan&#45;&gt;varadaksor -->
<g id="edge3" class="edge"><title>krai_lagernia_ogan&#45;&gt;varadaksor</title>
<path fill="none" stroke="black" d="M296.296,-1593.52C307.016,-1584.07 319.047,-1571.28 325.644,-1557.03 334.545,-1537.79 336.514,-1513.78 336.412,-1495.54"/>
<polygon fill="black" stroke="black" points="339.904,-1495.19 336.137,-1485.29 332.907,-1495.38 339.904,-1495.19"/>
</g>
<!-- port_kuanongu -->
<g id="node5" class="node"><title>port_kuanongu</title>
<ellipse fill="moccasin" stroke="black" cx="251.644" cy="-1395.03" rx="68.4888" ry="18"/>
<text text-anchor="middle" x="251.644" y="-1391.33" font-family="Times,serif" font-size="14.00">Порт Куанонгу</text>
</g>
<!-- krai_lagernia_ogan&#45;&gt;port_kuanongu -->
<g id="edge4" class="edge"><title>krai_lagernia_ogan&#45;&gt;port_kuanongu</title>
<path fill="none" stroke="black" d="M252.139,-1593.54C241.323,-1584.19 229.467,-1571.47 223.644,-1557.03 205.48,-1511.95 224.157,-1455.12 238.507,-1422.44"/>
<polygon fill="black" stroke="black" points="241.796,-1423.67 242.776,-1413.12 235.431,-1420.75 241.796,-1423.67"/>
</g>
<!-- stalker&#45;&gt;varadaksor -->
<g id="edge5" class="edge"><title>stalker&#45;&gt;varadaksor</title>
<path fill="none" stroke="black" d="M288.56,-1521.79C296.025,-1513.08 305.376,-1502.17 313.7,-1492.46"/>
<polygon fill="black" stroke="black" points="316.536,-1494.53 320.387,-1484.66 311.222,-1489.97 316.536,-1494.53"/>
</g>
<!-- stalker&#45;&gt;port_kuanongu -->
<g id="edge6" class="edge"><title>stalker&#45;&gt;port_kuanongu</title>
<path fill="none" stroke="black" d="M271.87,-1520.9C267.95,-1496.7 260.749,-1452.24 256.081,-1423.42"/>
<polygon fill="black" stroke="black" points="259.482,-1422.53 254.428,-1413.21 252.572,-1423.65 259.482,-1422.53"/>
</g>
<!-- varadaksor&#45;&gt;port_kuanongu -->
<g id="edge7" class="edge"><title>varadaksor&#45;&gt;port_kuanongu</title>
<path fill="none" stroke="black" d="M315.394,-1449.79C304.577,-1440.67 290.897,-1429.13 278.985,-1419.08"/>
<polygon fill="black" stroke="black" points="280.979,-1416.19 271.078,-1412.42 276.466,-1421.54 280.979,-1416.19"/>
</g>
<!-- ogustus -->
<g id="node6" class="node"><title>ogustus</title>
<ellipse fill="paleturquoise" stroke="black" cx="193.644" cy="-1179.03" rx="41.6928" ry="18"/>
<text text-anchor="middle" x="193.644" y="-1175.33" font-family="Times,serif" font-size="14.00">Огъстъс</text>
</g>
<!-- port_kuanongu&#45;&gt;ogustus -->
<g id="edge10" class="edge"><title>port_kuanongu&#45;&gt;ogustus</title>
<path fill="none" stroke="black" d="M225.266,-1378.37C212.568,-1369.24 198.615,-1356.48 191.644,-1341.03 171.943,-1297.34 179.527,-1239.96 186.686,-1206.82"/>
<polygon fill="black" stroke="black" points="190.123,-1207.49 188.96,-1196.96 183.302,-1205.91 190.123,-1207.49"/>
</g>
<!-- tarseshtoto_chudovishte -->
<g id="node7" class="node"><title>tarseshtoto_chudovishte</title>
<ellipse fill="#ffd39b" stroke="black" cx="415.644" cy="-1323.03" rx="94.4839" ry="18"/>
<text text-anchor="middle" x="415.644" y="-1319.33" font-family="Times,serif" font-size="14.00">Търсещото Чудовище</text>
</g>
<!-- port_kuanongu&#45;&gt;tarseshtoto_chudovishte -->
<g id="edge9" class="edge"><title>port_kuanongu&#45;&gt;tarseshtoto_chudovishte</title>
<path fill="none" stroke="black" d="M286.024,-1379.35C310.283,-1369 343.052,-1355.01 369.572,-1343.69"/>
<polygon fill="black" stroke="black" points="371.209,-1346.8 379.032,-1339.65 368.461,-1340.36 371.209,-1346.8"/>
</g>
<!-- magdalena -->
<g id="node8" class="node"><title>magdalena</title>
<ellipse fill="cornsilk" stroke="black" cx="251.644" cy="-1323.03" rx="51.1914" ry="18"/>
<text text-anchor="middle" x="251.644" y="-1319.33" font-family="Times,serif" font-size="14.00">Магдалена</text>
</g>
<!-- port_kuanongu&#45;&gt;magdalena -->
<g id="edge8" class="edge"><title>port_kuanongu&#45;&gt;magdalena</title>
<path fill="none" stroke="black" d="M251.644,-1376.72C251.644,-1369.01 251.644,-1359.74 251.644,-1351.14"/>
<polygon fill="black" stroke="black" points="255.144,-1351.13 251.644,-1341.13 248.144,-1351.13 255.144,-1351.13"/>
</g>
<!-- prorochica -->
<g id="node12" class="node"><title>prorochica</title>
<ellipse fill="azure" stroke="black" cx="271.644" cy="-1035.03" rx="51.9908" ry="18"/>
<text text-anchor="middle" x="271.644" y="-1031.33" font-family="Times,serif" font-size="14.00">Пророчица</text>
</g>
<!-- ogustus&#45;&gt;prorochica -->
<g id="edge14" class="edge"><title>ogustus&#45;&gt;prorochica</title>
<path fill="none" stroke="black" d="M202.744,-1161.46C216.176,-1137.01 241.431,-1091.03 257.35,-1062.05"/>
<polygon fill="black" stroke="black" points="260.613,-1063.38 262.36,-1052.93 254.478,-1060.01 260.613,-1063.38"/>
</g>
<!-- elfi -->
<g id="node13" class="node"><title>elfi</title>
<ellipse fill="floralwhite" stroke="black" cx="271.644" cy="-963.025" rx="31.6951" ry="18"/>
<text text-anchor="middle" x="271.644" y="-959.325" font-family="Times,serif" font-size="14.00">Елфи</text>
</g>
<!-- ogustus&#45;&gt;elfi -->
<g id="edge15" class="edge"><title>ogustus&#45;&gt;elfi</title>
<path fill="none" stroke="black" d="M191.531,-1160.88C188.556,-1130.13 185.968,-1064.39 210.644,-1017.03 217.843,-1003.21 230.274,-991.407 242.044,-982.47"/>
<polygon fill="black" stroke="black" points="244.317,-985.148 250.413,-976.482 240.244,-979.455 244.317,-985.148"/>
</g>
<!-- snezhni_vampiri -->
<g id="node10" class="node"><title>snezhni_vampiri</title>
<ellipse fill="antiquewhite" stroke="black" cx="338.644" cy="-1251.03" rx="75.2868" ry="18"/>
<text text-anchor="middle" x="338.644" y="-1247.33" font-family="Times,serif" font-size="14.00">Снежни вампири</text>
</g>
<!-- tarseshtoto_chudovishte&#45;&gt;snezhni_vampiri -->
<g id="edge13" class="edge"><title>tarseshtoto_chudovishte&#45;&gt;snezhni_vampiri</title>
<path fill="none" stroke="black" d="M397.005,-1305.08C387.191,-1296.16 375.007,-1285.08 364.314,-1275.36"/>
<polygon fill="black" stroke="black" points="366.6,-1272.71 356.846,-1268.57 361.891,-1277.89 366.6,-1272.71"/>
</g>
<!-- magdalena&#45;&gt;ogustus -->
<g id="edge11" class="edge"><title>magdalena&#45;&gt;ogustus</title>
<path fill="none" stroke="black" d="M244.763,-1305.18C234.778,-1280.73 216.179,-1235.2 204.381,-1206.31"/>
<polygon fill="black" stroke="black" points="207.538,-1204.78 200.516,-1196.85 201.058,-1207.43 207.538,-1204.78"/>
</g>
<!-- magdalena&#45;&gt;snezhni_vampiri -->
<g id="edge12" class="edge"><title>magdalena&#45;&gt;snezhni_vampiri</title>
<path fill="none" stroke="black" d="M271.386,-1306.14C282.819,-1296.94 297.41,-1285.2 310.078,-1275.01"/>
<polygon fill="black" stroke="black" points="312.476,-1277.57 318.073,-1268.58 308.088,-1272.12 312.476,-1277.57"/>
</g>
<!-- begalka -->
<g id="node9" class="node"><title>begalka</title>
<ellipse fill="floralwhite" stroke="black" cx="338.644" cy="-1179.03" rx="40.8928" ry="18"/>
<text text-anchor="middle" x="338.644" y="-1175.33" font-family="Times,serif" font-size="14.00">Бегълка</text>
</g>
<!-- aislaken -->
<g id="node11" class="node"><title>aislaken</title>
<ellipse fill="lemonchiffon" stroke="black" cx="338.644" cy="-1107.03" rx="46.5926" ry="18"/>
<text text-anchor="middle" x="338.644" y="-1103.33" font-family="Times,serif" font-size="14.00">Айслакен</text>
</g>
<!-- begalka&#45;&gt;aislaken -->
<g id="edge17" class="edge"><title>begalka&#45;&gt;aislaken</title>
<path fill="none" stroke="black" d="M338.644,-1160.72C338.644,-1153.01 338.644,-1143.74 338.644,-1135.14"/>
<polygon fill="black" stroke="black" points="342.144,-1135.13 338.644,-1125.13 335.144,-1135.13 342.144,-1135.13"/>
</g>
<!-- snezhni_vampiri&#45;&gt;begalka -->
<g id="edge16" class="edge"><title>snezhni_vampiri&#45;&gt;begalka</title>
<path fill="none" stroke="black" d="M338.644,-1232.72C338.644,-1225.01 338.644,-1215.74 338.644,-1207.14"/>
<polygon fill="black" stroke="black" points="342.144,-1207.13 338.644,-1197.13 335.144,-1207.13 342.144,-1207.13"/>
</g>
<!-- aislaken&#45;&gt;prorochica -->
<g id="edge18" class="edge"><title>aislaken&#45;&gt;prorochica</title>
<path fill="none" stroke="black" d="M323.105,-1089.79C314.686,-1080.99 304.118,-1069.95 294.753,-1060.17"/>
<polygon fill="black" stroke="black" points="297.008,-1057.46 287.565,-1052.66 291.951,-1062.3 297.008,-1057.46"/>
</g>
<!-- aislaken&#45;&gt;elfi -->
<g id="edge19" class="edge"><title>aislaken&#45;&gt;elfi</title>
<path fill="none" stroke="black" d="M341.221,-1088.96C343.224,-1070.26 344.02,-1039.91 332.644,-1017.03 325.709,-1003.08 313.312,-991.255 301.497,-982.342"/>
<polygon fill="black" stroke="black" points="303.266,-979.305 293.084,-976.376 299.217,-985.015 303.266,-979.305"/>
</g>
<!-- prorochica&#45;&gt;elfi -->
<g id="edge20" class="edge"><title>prorochica&#45;&gt;elfi</title>
<path fill="none" stroke="black" d="M271.644,-1016.72C271.644,-1009.01 271.644,-999.738 271.644,-991.138"/>
<polygon fill="black" stroke="black" points="275.144,-991.13 271.644,-981.13 268.144,-991.13 275.144,-991.13"/>
</g>
<!-- mrazoviti_hrutki -->
<g id="node14" class="node"><title>mrazoviti_hrutki</title>
<ellipse fill="#caff70" stroke="black" cx="271.644" cy="-891.025" rx="82.5854" ry="18"/>
<text text-anchor="middle" x="271.644" y="-887.325" font-family="Times,serif" font-size="14.00">Мразовити хрътки</text>
</g>
<!-- elfi&#45;&gt;mrazoviti_hrutki -->
<g id="edge21" class="edge"><title>elfi&#45;&gt;mrazoviti_hrutki</title>
<path fill="none" stroke="black" d="M271.644,-944.722C271.644,-937.008 271.644,-927.738 271.644,-919.138"/>
<polygon fill="black" stroke="black" points="275.144,-919.13 271.644,-909.13 268.144,-919.13 275.144,-919.13"/>
</g>
<!-- porta_na_klaneto -->
<g id="node15" class="node"><title>porta_na_klaneto</title>
<ellipse fill="mintcream" stroke="black" cx="138.644" cy="-819.025" rx="79.0865" ry="18"/>
<text text-anchor="middle" x="138.644" y="-815.325" font-family="Times,serif" font-size="14.00">Порта на Клането</text>
</g>
<!-- mrazoviti_hrutki&#45;&gt;porta_na_klaneto -->
<g id="edge22" class="edge"><title>mrazoviti_hrutki&#45;&gt;porta_na_klaneto</title>
<path fill="none" stroke="black" d="M241.464,-874.141C222.589,-864.207 198.082,-851.308 177.729,-840.596"/>
<polygon fill="black" stroke="black" points="179.184,-837.407 168.705,-835.846 175.924,-843.601 179.184,-837.407"/>
</g>
<!-- portata_na_obyrkvaneto -->
<g id="node19" class="node"><title>portata_na_obyrkvaneto</title>
<ellipse fill="lightcyan" stroke="black" cx="271.644" cy="-675.025" rx="96.6831" ry="18"/>
<text text-anchor="middle" x="271.644" y="-671.325" font-family="Times,serif" font-size="14.00">Порта на Объркването</text>
</g>
<!-- mrazoviti_hrutki&#45;&gt;portata_na_obyrkvaneto -->
<g id="edge23" class="edge"><title>mrazoviti_hrutki&#45;&gt;portata_na_obyrkvaneto</title>
<path fill="none" stroke="black" d="M271.644,-872.874C271.644,-835.857 271.644,-748.206 271.644,-703.411"/>
<polygon fill="black" stroke="black" points="275.144,-703.258 271.644,-693.258 268.144,-703.258 275.144,-703.258"/>
</g>
<!-- portata_na_straha -->
<g id="node22" class="node"><title>portata_na_straha</title>
<ellipse fill="#ffffe0" stroke="black" cx="476.644" cy="-819.025" rx="74.187" ry="18"/>
<text text-anchor="middle" x="476.644" y="-815.325" font-family="Times,serif" font-size="14.00">Порта на Страха</text>
</g>
<!-- mrazoviti_hrutki&#45;&gt;portata_na_straha -->
<g id="edge24" class="edge"><title>mrazoviti_hrutki&#45;&gt;portata_na_straha</title>
<path fill="none" stroke="black" d="M314.12,-875.521C346.569,-864.441 391.41,-849.129 425.773,-837.396"/>
<polygon fill="black" stroke="black" points="427.289,-840.577 435.621,-834.033 425.027,-833.952 427.289,-840.577"/>
</g>
<!-- bandata -->
<g id="node16" class="node"><title>bandata</title>
<ellipse fill="#79cdcd" stroke="black" cx="105.644" cy="-747.025" rx="42.4939" ry="18"/>
<text text-anchor="middle" x="105.644" y="-743.325" font-family="Times,serif" font-size="14.00">Бандата</text>
</g>
<!-- porta_na_klaneto&#45;&gt;bandata -->
<g id="edge25" class="edge"><title>porta_na_klaneto&#45;&gt;bandata</title>
<path fill="none" stroke="black" d="M130.656,-801.08C126.846,-792.998 122.201,-783.147 117.954,-774.137"/>
<polygon fill="black" stroke="black" points="120.989,-772.367 113.559,-764.814 114.657,-775.352 120.989,-772.367"/>
</g>
<!-- silfi -->
<g id="node17" class="node"><title>silfi</title>
<ellipse fill="gainsboro" stroke="black" cx="92.6442" cy="-675.025" rx="37.0935" ry="18"/>
<text text-anchor="middle" x="92.6442" y="-671.325" font-family="Times,serif" font-size="14.00">Силфи</text>
</g>
<!-- bandata&#45;&gt;silfi -->
<g id="edge26" class="edge"><title>bandata&#45;&gt;silfi</title>
<path fill="none" stroke="black" d="M102.431,-728.722C100.998,-721.008 99.2765,-711.738 97.6793,-703.138"/>
<polygon fill="black" stroke="black" points="101.088,-702.322 95.8207,-693.13 94.2055,-703.601 101.088,-702.322"/>
</g>
<!-- potok_ot_kryv -->
<g id="node18" class="node"><title>potok_ot_kryv</title>
<ellipse fill="#97ffff" stroke="black" cx="65.6442" cy="-603.025" rx="65.7887" ry="18"/>
<text text-anchor="middle" x="65.6442" y="-599.325" font-family="Times,serif" font-size="14.00">Поток от кръв</text>
</g>
<!-- silfi&#45;&gt;potok_ot_kryv -->
<g id="edge30" class="edge"><title>silfi&#45;&gt;potok_ot_kryv</title>
<path fill="none" stroke="black" d="M86.1082,-657.08C83.0693,-649.201 79.382,-639.642 75.979,-630.819"/>
<polygon fill="black" stroke="black" points="79.1718,-629.371 72.3075,-621.301 72.6408,-631.89 79.1718,-629.371"/>
</g>
<!-- myrtyv -->
<g id="node24" class="node"><title>myrtyv</title>
<ellipse fill="#ffc1c1" stroke="black" cx="237.644" cy="-531.025" rx="40.0939" ry="18"/>
<text text-anchor="middle" x="237.644" y="-527.325" font-family="Times,serif" font-size="14.00">Мъртъв</text>
</g>
<!-- potok_ot_kryv&#45;&gt;myrtyv -->
<g id="edge31" class="edge"><title>potok_ot_kryv&#45;&gt;myrtyv</title>
<path fill="none" stroke="black" d="M100.866,-587.691C129.476,-576.047 169.766,-559.65 199.207,-547.668"/>
<polygon fill="black" stroke="black" points="200.8,-550.799 208.743,-543.787 198.161,-544.315 200.8,-550.799"/>
</g>
<!-- pogrebenie -->
<g id="node25" class="node"><title>pogrebenie</title>
<ellipse fill="wheat" stroke="black" cx="373.644" cy="-531.025" rx="54.6905" ry="18"/>
<text text-anchor="middle" x="373.644" y="-527.325" font-family="Times,serif" font-size="14.00">Погребение</text>
</g>
<!-- potok_ot_kryv&#45;&gt;pogrebenie -->
<g id="edge32" class="edge"><title>potok_ot_kryv&#45;&gt;pogrebenie</title>
<path fill="none" stroke="black" d="M114.448,-590.934C170.454,-578.205 262.016,-557.395 319.985,-544.22"/>
<polygon fill="black" stroke="black" points="321.073,-547.562 330.049,-541.933 319.522,-540.737 321.073,-547.562"/>
</g>
<!-- energien_most -->
<g id="node20" class="node"><title>energien_most</title>
<ellipse fill="papayawhip" stroke="black" cx="385.644" cy="-603.025" rx="66.0889" ry="18"/>
<text text-anchor="middle" x="385.644" y="-599.325" font-family="Times,serif" font-size="14.00">Енергиен мост</text>
</g>
<!-- portata_na_obyrkvaneto&#45;&gt;energien_most -->
<g id="edge28" class="edge"><title>portata_na_obyrkvaneto&#45;&gt;energien_most</title>
<path fill="none" stroke="black" d="M298.372,-657.613C314.176,-647.909 334.353,-635.52 351.325,-625.098"/>
<polygon fill="black" stroke="black" points="353.178,-628.068 359.868,-619.853 349.515,-622.103 353.178,-628.068"/>
</g>
<!-- mramorni_plochi -->
<g id="node21" class="node"><title>mramorni_plochi</title>
<ellipse fill="lemonchiffon" stroke="black" cx="225.644" cy="-603.025" rx="76.0865" ry="18"/>
<text text-anchor="middle" x="225.644" y="-599.325" font-family="Times,serif" font-size="14.00">Мраморни плочи</text>
</g>
<!-- portata_na_obyrkvaneto&#45;&gt;mramorni_plochi -->
<g id="edge27" class="edge"><title>portata_na_obyrkvaneto&#45;&gt;mramorni_plochi</title>
<path fill="none" stroke="black" d="M260.509,-657.08C255.109,-648.863 248.507,-638.816 242.506,-629.685"/>
<polygon fill="black" stroke="black" points="245.413,-627.735 236.997,-621.301 239.563,-631.58 245.413,-627.735"/>
</g>
<!-- energien_most&#45;&gt;myrtyv -->
<g id="edge33" class="edge"><title>energien_most&#45;&gt;myrtyv</title>
<path fill="none" stroke="black" d="M353.894,-587.008C330.35,-575.873 298.224,-560.678 273.71,-549.083"/>
<polygon fill="black" stroke="black" points="274.925,-545.786 264.388,-544.674 271.932,-552.114 274.925,-545.786"/>
</g>
<!-- energien_most&#45;&gt;pogrebenie -->
<g id="edge34" class="edge"><title>energien_most&#45;&gt;pogrebenie</title>
<path fill="none" stroke="black" d="M382.678,-584.722C381.355,-577.008 379.766,-567.738 378.292,-559.138"/>
<polygon fill="black" stroke="black" points="381.716,-558.394 376.576,-549.13 374.816,-559.577 381.716,-558.394"/>
</g>
<!-- mramorni_plochi&#45;&gt;myrtyv -->
<g id="edge37" class="edge"><title>mramorni_plochi&#45;&gt;myrtyv</title>
<path fill="none" stroke="black" d="M228.61,-584.722C229.933,-577.008 231.522,-567.738 232.996,-559.138"/>
<polygon fill="black" stroke="black" points="236.472,-559.577 234.712,-549.13 229.573,-558.394 236.472,-559.577"/>
</g>
<!-- mramorni_plochi&#45;&gt;pogrebenie -->
<g id="edge38" class="edge"><title>mramorni_plochi&#45;&gt;pogrebenie</title>
<path fill="none" stroke="black" d="M258.123,-586.663C280.659,-576.005 310.791,-561.753 334.63,-550.478"/>
<polygon fill="black" stroke="black" points="336.215,-553.6 343.758,-546.16 333.222,-547.272 336.215,-553.6"/>
</g>
<!-- banketna_zala -->
<g id="node23" class="node"><title>banketna_zala</title>
<ellipse fill="palegoldenrod" stroke="black" cx="533.644" cy="-603.025" rx="63.8893" ry="18"/>
<text text-anchor="middle" x="533.644" y="-599.325" font-family="Times,serif" font-size="14.00">Банкетна зала</text>
</g>
<!-- portata_na_straha&#45;&gt;banketna_zala -->
<g id="edge29" class="edge"><title>portata_na_straha&#45;&gt;banketna_zala</title>
<path fill="none" stroke="black" d="M481.212,-800.874C491.093,-763.779 514.517,-675.835 526.425,-631.128"/>
<polygon fill="black" stroke="black" points="529.862,-631.822 529.054,-621.258 523.098,-630.02 529.862,-631.822"/>
</g>
<!-- banketna_zala&#45;&gt;myrtyv -->
<g id="edge35" class="edge"><title>banketna_zala&#45;&gt;myrtyv</title>
<path fill="none" stroke="black" d="M486.415,-590.856C430.33,-577.593 337.478,-555.635 282.469,-542.626"/>
<polygon fill="black" stroke="black" points="283.193,-539.2 272.656,-540.305 281.582,-546.013 283.193,-539.2"/>
</g>
<!-- banketna_zala&#45;&gt;pogrebenie -->
<g id="edge36" class="edge"><title>banketna_zala&#45;&gt;pogrebenie</title>
<path fill="none" stroke="black" d="M500.492,-587.521C475.546,-576.607 441.217,-561.589 414.562,-549.927"/>
<polygon fill="black" stroke="black" points="415.685,-546.598 405.121,-545.796 412.879,-553.011 415.685,-546.598"/>
</g>
<!-- foltin -->
<g id="node26" class="node"><title>foltin</title>
<ellipse fill="#ffe4c4" stroke="black" cx="305.644" cy="-459.025" rx="40.0939" ry="18"/>
<text text-anchor="middle" x="305.644" y="-455.325" font-family="Times,serif" font-size="14.00">Фолтин</text>
</g>
<!-- myrtyv&#45;&gt;foltin -->
<g id="edge39" class="edge"><title>myrtyv&#45;&gt;foltin</title>
<path fill="none" stroke="black" d="M253.074,-514.141C261.943,-505.012 273.242,-493.38 283.091,-483.242"/>
<polygon fill="black" stroke="black" points="285.818,-485.458 290.275,-475.846 280.797,-480.581 285.818,-485.458"/>
</g>
<!-- kliros -->
<g id="node27" class="node"><title>kliros</title>
<ellipse fill="#c1ffc1" stroke="black" cx="305.644" cy="-387.025" rx="38.9931" ry="18"/>
<text text-anchor="middle" x="305.644" y="-383.325" font-family="Times,serif" font-size="14.00">Клирос</text>
</g>
<!-- myrtyv&#45;&gt;kliros -->
<g id="edge40" class="edge"><title>myrtyv&#45;&gt;kliros</title>
<path fill="none" stroke="black" d="M238.622,-512.717C240.275,-494.085 244.719,-464.029 256.644,-441.025 262.443,-429.839 271.246,-419.264 279.798,-410.546"/>
<polygon fill="black" stroke="black" points="282.429,-412.87 287.167,-403.393 277.554,-407.846 282.429,-412.87"/>
</g>
<!-- umborus -->
<g id="node28" class="node"><title>umborus</title>
<ellipse fill="floralwhite" stroke="black" cx="305.644" cy="-315.025" rx="44.393" ry="18"/>
<text text-anchor="middle" x="305.644" y="-311.325" font-family="Times,serif" font-size="14.00">Умборус</text>
</g>
<!-- myrtyv&#45;&gt;umborus -->
<g id="edge41" class="edge"><title>myrtyv&#45;&gt;umborus</title>
<path fill="none" stroke="black" d="M235.982,-512.885C233.79,-482.137 232.747,-416.397 257.644,-369.025 263.451,-357.976 272.101,-347.431 280.465,-338.697"/>
<polygon fill="black" stroke="black" points="283.052,-341.061 287.663,-331.522 278.11,-336.103 283.052,-341.061"/>
</g>
<!-- pogrebenie&#45;&gt;foltin -->
<g id="edge42" class="edge"><title>pogrebenie&#45;&gt;foltin</title>
<path fill="none" stroke="black" d="M357.873,-513.79C349.119,-504.778 338.075,-493.41 328.401,-483.451"/>
<polygon fill="black" stroke="black" points="330.809,-480.907 321.33,-476.173 325.788,-485.784 330.809,-480.907"/>
</g>
<!-- pogrebenie&#45;&gt;kliros -->
<g id="edge43" class="edge"><title>pogrebenie&#45;&gt;kliros</title>
<path fill="none" stroke="black" d="M372.667,-512.717C371.013,-494.085 366.57,-464.029 354.644,-441.025 348.845,-429.839 340.043,-419.264 331.49,-410.546"/>
<polygon fill="black" stroke="black" points="333.735,-407.846 324.121,-403.393 328.859,-412.87 333.735,-407.846"/>
</g>
<!-- pogrebenie&#45;&gt;umborus -->
<g id="edge44" class="edge"><title>pogrebenie&#45;&gt;umborus</title>
<path fill="none" stroke="black" d="M374.457,-512.844C374.906,-502.474 375.418,-488.993 375.644,-477.025 376.568,-428.048 377.824,-411.627 353.644,-369.025 347.483,-358.17 338.757,-347.666 330.431,-338.912"/>
<polygon fill="black" stroke="black" points="332.816,-336.346 323.292,-331.704 327.843,-341.272 332.816,-336.346"/>
</g>
<!-- foltin&#45;&gt;kliros -->
<g id="edge45" class="edge"><title>foltin&#45;&gt;kliros</title>
<path fill="none" stroke="black" d="M305.644,-440.722C305.644,-433.008 305.644,-423.738 305.644,-415.138"/>
<polygon fill="black" stroke="black" points="309.144,-415.13 305.644,-405.13 302.144,-415.13 309.144,-415.13"/>
</g>
<!-- kliros&#45;&gt;umborus -->
<g id="edge46" class="edge"><title>kliros&#45;&gt;umborus</title>
<path fill="none" stroke="black" d="M305.644,-368.722C305.644,-361.008 305.644,-351.738 305.644,-343.138"/>
<polygon fill="black" stroke="black" points="309.144,-343.13 305.644,-333.13 302.144,-343.13 309.144,-343.13"/>
</g>
<!-- carska_arena -->
<g id="node29" class="node"><title>carska_arena</title>
<ellipse fill="aliceblue" stroke="black" cx="305.644" cy="-243.025" rx="60.3893" ry="18"/>
<text text-anchor="middle" x="305.644" y="-239.325" font-family="Times,serif" font-size="14.00">Царска арена</text>
</g>
<!-- umborus&#45;&gt;carska_arena -->
<g id="edge47" class="edge"><title>umborus&#45;&gt;carska_arena</title>
<path fill="none" stroke="black" d="M305.644,-296.722C305.644,-289.008 305.644,-279.738 305.644,-271.138"/>
<polygon fill="black" stroke="black" points="309.144,-271.13 305.644,-261.13 302.144,-271.13 309.144,-271.13"/>
</g>
<!-- tronna_payazhina -->
<g id="node30" class="node"><title>tronna_payazhina</title>
<ellipse fill="#fff68f" stroke="black" cx="305.644" cy="-171.025" rx="72.2875" ry="18"/>
<text text-anchor="middle" x="305.644" y="-167.325" font-family="Times,serif" font-size="14.00">Тронна паяжина</text>
</g>
<!-- carska_arena&#45;&gt;tronna_payazhina -->
<g id="edge48" class="edge"><title>carska_arena&#45;&gt;tronna_payazhina</title>
<path fill="none" stroke="black" d="M305.644,-224.722C305.644,-217.008 305.644,-207.738 305.644,-199.138"/>
<polygon fill="black" stroke="black" points="309.144,-199.13 305.644,-189.13 302.144,-199.13 309.144,-199.13"/>
</g>
<!-- end -->
<g id="node31" class="node"><title>end</title>
<polygon fill="#ffb90f" stroke="#ffb90f" points="367.192,-72.3285 320.174,-72.3285 305.644,-117.038 291.115,-72.3285 244.097,-72.3285 282.135,-44.6967 267.606,0.0126124 305.644,-27.6192 343.683,0.0126124 329.153,-44.6967 367.192,-72.3285"/>
<text text-anchor="middle" x="305.644" y="-54.8126" font-family="Times,serif" font-size="14.00">Край</text>
</g>
<!-- tronna_payazhina&#45;&gt;end -->
<g id="edge49" class="edge"><title>tronna_payazhina&#45;&gt;end</title>
<path fill="none" stroke="black" d="M305.644,-152.758C305.644,-145.625 305.644,-136.855 305.644,-127.575"/>
<polygon fill="black" stroke="black" points="309.144,-127.358 305.644,-117.358 302.144,-127.358 309.144,-127.358"/>
</g>
</g>
</svg>
