<?xml version="1.0" encoding="UTF-8" standalone="no"?>
<!DOCTYPE svg PUBLIC "-//W3C//DTD SVG 1.1//EN"
 "http://www.w3.org/Graphics/SVG/1.1/DTD/svg11.dtd">
<!-- Generated by graphviz version 2.43.0 (0)
 -->
<!-- Title: SgnarkDrakonovaPast Pages: 1 -->
<svg width="1350pt" height="1682pt"
 viewBox="0.00 0.00 1350.00 1682.29" xmlns="http://www.w3.org/2000/svg" xmlns:xlink="http://www.w3.org/1999/xlink">
<g id="graph0" class="graph" transform="scale(1 1) rotate(0) translate(4 1678.29)">
<title>SgnarkDrakonovaPast</title>
<polygon fill="white" stroke="transparent" points="-4,4 -4,-1678.29 1346,-1678.29 1346,4 -4,4"/>
<g id="clust5" class="cluster">
<title>cluster_dulsey</title>
<polygon fill="seashell" stroke="blue" points="561,-675.29 561,-1414.29 939,-1414.29 939,-675.29 561,-675.29"/>
<text text-anchor="middle" x="750" y="-1370.29" font-family="Times,serif" font-size="50.00">Дулсей</text>
</g>
<g id="clust6" class="cluster">
<title>cluster_krai_patq</title>
<polygon fill="aliceblue" stroke="blue" points="134,-870.29 134,-1299.29 553,-1299.29 553,-870.29 134,-870.29"/>
<text text-anchor="middle" x="343.5" y="-1255.29" font-family="Times,serif" font-size="50.00">Нощ край пътя</text>
</g>
<g id="clust7" class="cluster">
<title>cluster_arbalet</title>
<polygon fill="mistyrose" stroke="blue" points="318,-675.29 318,-862.29 553,-862.29 553,-675.29 318,-675.29"/>
<text text-anchor="middle" x="435.5" y="-818.29" font-family="Times,serif" font-size="50.00">Арбалет</text>
</g>
<g id="clust8" class="cluster">
<title>cluster_sanishta</title>
<polygon fill="moccasin" stroke="blue" points="978,-675.29 978,-1112.29 1334,-1112.29 1334,-675.29 978,-675.29"/>
<text text-anchor="middle" x="1156" y="-1068.29" font-family="Times,serif" font-size="50.00">Сънища</text>
<text text-anchor="middle" x="1156" y="-1013.29" font-family="Times,serif" font-size="50.00">и съкровища</text>
</g>
<g id="clust9" class="cluster">
<title>cluster_peshteren_sklon</title>
<polygon fill="paleturquoise" stroke="blue" points="473,-8 473,-667.29 937,-667.29 937,-8 473,-8"/>
<text text-anchor="middle" x="705" y="-623.29" font-family="Times,serif" font-size="50.00">Пещерния склон</text>
</g>
<!-- 7 -->
<g id="node1" class="node">
<title>7</title>
<ellipse fill="red" stroke="red" cx="514" cy="-403.57" rx="27" ry="18"/>
<text text-anchor="middle" x="514" y="-399.87" font-family="Times,serif" font-size="14.00">7</text>
</g>
<!-- 8 -->
<g id="node2" class="node">
<title>8</title>
<ellipse fill="red" stroke="red" cx="688" cy="-896.29" rx="27" ry="18"/>
<text text-anchor="middle" x="688" y="-892.59" font-family="Times,serif" font-size="14.00">8</text>
</g>
<!-- 9 -->
<g id="node3" class="node">
<title>9</title>
<ellipse fill="red" stroke="red" cx="446" cy="-773.29" rx="27" ry="18"/>
<text text-anchor="middle" x="446" y="-769.59" font-family="Times,serif" font-size="14.00">9</text>
</g>
<!-- 11 -->
<g id="node4" class="node">
<title>11</title>
<ellipse fill="red" stroke="red" cx="498" cy="-968.29" rx="27" ry="18"/>
<text text-anchor="middle" x="498" y="-964.59" font-family="Times,serif" font-size="14.00">11</text>
</g>
<!-- 12 -->
<g id="node5" class="node">
<title>12</title>
<ellipse fill="red" stroke="red" cx="850" cy="-403.57" rx="27" ry="18"/>
<text text-anchor="middle" x="850" y="-399.87" font-family="Times,serif" font-size="14.00">12</text>
</g>
<!-- 13 -->
<g id="node6" class="node">
<title>13</title>
<ellipse fill="red" stroke="red" cx="538" cy="-506.29" rx="27" ry="18"/>
<text text-anchor="middle" x="538" y="-502.59" font-family="Times,serif" font-size="14.00">13</text>
</g>
<!-- 18 -->
<g id="node7" class="node">
<title>18</title>
<ellipse fill="red" stroke="red" cx="904" cy="-896.29" rx="27" ry="18"/>
<text text-anchor="middle" x="904" y="-892.59" font-family="Times,serif" font-size="14.00">18</text>
</g>
<!-- 19 -->
<g id="node8" class="node">
<title>19</title>
<ellipse fill="red" stroke="red" cx="99" cy="-896.29" rx="27" ry="18"/>
<text text-anchor="middle" x="99" y="-892.59" font-family="Times,serif" font-size="14.00">19</text>
</g>
<!-- 24 -->
<g id="node9" class="node">
<title>24</title>
<ellipse fill="red" stroke="red" cx="374" cy="-701.29" rx="27" ry="18"/>
<text text-anchor="middle" x="374" y="-697.59" font-family="Times,serif" font-size="14.00">24</text>
</g>
<!-- 30 -->
<g id="node10" class="node">
<title>30</title>
<ellipse fill="red" stroke="red" cx="706" cy="-270.14" rx="27" ry="18"/>
<text text-anchor="middle" x="706" y="-266.44" font-family="Times,serif" font-size="14.00">30</text>
</g>
<!-- 32 -->
<g id="node11" class="node">
<title>32</title>
<ellipse fill="red" stroke="red" cx="688" cy="-968.29" rx="27" ry="18"/>
<text text-anchor="middle" x="688" y="-964.59" font-family="Times,serif" font-size="14.00">32</text>
</g>
<!-- 35 -->
<g id="node12" class="node">
<title>35</title>
<ellipse fill="red" stroke="red" cx="596" cy="-896.29" rx="27" ry="18"/>
<text text-anchor="middle" x="596" y="-892.59" font-family="Times,serif" font-size="14.00">35</text>
</g>
<!-- 47 -->
<g id="node13" class="node">
<title>47</title>
<ellipse fill="red" stroke="red" cx="881" cy="-773.29" rx="27" ry="18"/>
<text text-anchor="middle" x="881" y="-769.59" font-family="Times,serif" font-size="14.00">47</text>
</g>
<!-- 50 -->
<g id="node14" class="node">
<title>50</title>
<ellipse fill="red" stroke="red" cx="850" cy="-270.14" rx="27" ry="18"/>
<text text-anchor="middle" x="850" y="-266.44" font-family="Times,serif" font-size="14.00">50</text>
</g>
<!-- 59 -->
<g id="node15" class="node">
<title>59</title>
<ellipse fill="red" stroke="red" cx="824" cy="-167.43" rx="27" ry="18"/>
<text text-anchor="middle" x="824" y="-163.73" font-family="Times,serif" font-size="14.00">59</text>
</g>
<!-- 36 -->
<g id="node16" class="node">
<title>36</title>
<polygon fill="aquamarine" stroke="aquamarine" points="126,-986.29 72,-986.29 72,-950.29 126,-950.29 126,-986.29"/>
<text text-anchor="middle" x="99" y="-964.59" font-family="Times,serif" font-size="14.00">36</text>
</g>
<!-- 36&#45;&gt;19 -->
<g id="edge42" class="edge">
<title>36&#45;&gt;19</title>
<path fill="none" stroke="black" d="M99,-949.99C99,-942.27 99,-933 99,-924.4"/>
<polygon fill="black" stroke="black" points="102.5,-924.39 99,-914.39 95.5,-924.39 102.5,-924.39"/>
</g>
<!-- 58 -->
<g id="node30" class="node">
<title>58</title>
<defs>
<radialGradient id="r_0" cx="50%" cy="50%" r="75%" fx="50%" fy="50%">
<stop offset="0" style="stop-color:coral;stop-opacity:1.;"/>
<stop offset="1" style="stop-color:white;stop-opacity:1.;"/>
</radialGradient>
</defs>
<ellipse fill="url(#r_0)" stroke="black" cx="27" cy="-896.29" rx="27" ry="18"/>
<text text-anchor="middle" x="27" y="-892.59" font-family="Times,serif" font-size="14.00">58</text>
</g>
<!-- 36&#45;&gt;58 -->
<g id="edge43" class="edge">
<title>36&#45;&gt;58</title>
<path fill="none" stroke="black" d="M81.2,-949.99C71.51,-940.56 59.44,-928.82 49.14,-918.82"/>
<polygon fill="black" stroke="black" points="51.3,-916.03 41.69,-911.57 46.42,-921.05 51.3,-916.03"/>
</g>
<!-- 37 -->
<g id="node17" class="node">
<title>37</title>
<polygon fill="aquamarine" stroke="aquamarine" points="859,-986.29 805,-986.29 805,-950.29 859,-950.29 859,-986.29"/>
<text text-anchor="middle" x="832" y="-964.59" font-family="Times,serif" font-size="14.00">37</text>
</g>
<!-- 37&#45;&gt;18 -->
<g id="edge45" class="edge">
<title>37&#45;&gt;18</title>
<path fill="none" stroke="black" d="M849.8,-949.99C859.49,-940.56 871.56,-928.82 881.86,-918.82"/>
<polygon fill="black" stroke="black" points="884.58,-921.05 889.31,-911.57 879.7,-916.03 884.58,-921.05"/>
</g>
<!-- 6 -->
<g id="node25" class="node">
<title>6</title>
<defs>
<radialGradient id="r_1" cx="50%" cy="50%" r="75%" fx="50%" fy="50%">
<stop offset="0" style="stop-color:coral;stop-opacity:1.;"/>
<stop offset="1" style="stop-color:white;stop-opacity:1.;"/>
</radialGradient>
</defs>
<ellipse fill="url(#r_1)" stroke="black" cx="760" cy="-896.29" rx="27" ry="18"/>
<text text-anchor="middle" x="760" y="-892.59" font-family="Times,serif" font-size="14.00">6</text>
</g>
<!-- 37&#45;&gt;6 -->
<g id="edge44" class="edge">
<title>37&#45;&gt;6</title>
<path fill="none" stroke="black" d="M814.2,-949.99C804.51,-940.56 792.44,-928.82 782.14,-918.82"/>
<polygon fill="black" stroke="black" points="784.3,-916.03 774.69,-911.57 779.42,-921.05 784.3,-916.03"/>
</g>
<!-- 14 -->
<g id="node18" class="node">
<title>14</title>
<ellipse fill="chartreuse" stroke="chartreuse" cx="457" cy="-701.29" rx="27" ry="18"/>
<text text-anchor="middle" x="457" y="-697.59" font-family="Times,serif" font-size="14.00">14</text>
</g>
<!-- 46 -->
<g id="node49" class="node">
<title>46</title>
<ellipse fill="none" stroke="black" cx="610" cy="-578.29" rx="27" ry="18"/>
<text text-anchor="middle" x="610" y="-574.59" font-family="Times,serif" font-size="14.00">46</text>
</g>
<!-- 14&#45;&gt;46 -->
<g id="edge11" class="edge">
<title>14&#45;&gt;46</title>
<path fill="none" stroke="black" d="M473.66,-687.11C500.54,-665.86 553.61,-623.89 585.02,-599.04"/>
<polygon fill="black" stroke="black" points="587.22,-601.77 592.89,-592.82 582.87,-596.28 587.22,-601.77"/>
</g>
<!-- 33 -->
<g id="node19" class="node">
<title>33</title>
<ellipse fill="chartreuse" stroke="chartreuse" cx="778" cy="-1584.29" rx="27" ry="18"/>
<text text-anchor="middle" x="778" y="-1580.59" font-family="Times,serif" font-size="14.00">33</text>
</g>
<!-- 16 -->
<g id="node62" class="node">
<title>16</title>
<ellipse fill="none" stroke="black" cx="778" cy="-1440.29" rx="27" ry="18"/>
<text text-anchor="middle" x="778" y="-1436.59" font-family="Times,serif" font-size="14.00">16</text>
</g>
<!-- 33&#45;&gt;16 -->
<g id="edge40" class="edge">
<title>33&#45;&gt;16</title>
<path fill="none" stroke="black" d="M778,-1566.16C778,-1541.96 778,-1497.5 778,-1468.68"/>
<polygon fill="black" stroke="black" points="781.5,-1468.48 778,-1458.48 774.5,-1468.48 781.5,-1468.48"/>
</g>
<!-- 34 -->
<g id="node20" class="node">
<title>34</title>
<ellipse fill="chartreuse" stroke="chartreuse" cx="518" cy="-773.29" rx="27" ry="18"/>
<text text-anchor="middle" x="518" y="-769.59" font-family="Times,serif" font-size="14.00">34</text>
</g>
<!-- 34&#45;&gt;46 -->
<g id="edge41" class="edge">
<title>34&#45;&gt;46</title>
<path fill="none" stroke="black" d="M524.02,-755.55C531.21,-736 543.92,-702.83 557,-675.29 568.79,-650.46 584.14,-623.1 595.28,-603.97"/>
<polygon fill="black" stroke="black" points="598.34,-605.68 600.38,-595.28 592.3,-602.13 598.34,-605.68"/>
</g>
<!-- 48 -->
<g id="node21" class="node">
<title>48</title>
<ellipse fill="chartreuse" stroke="chartreuse" cx="282" cy="-968.29" rx="27" ry="18"/>
<text text-anchor="middle" x="282" y="-964.59" font-family="Times,serif" font-size="14.00">48</text>
</g>
<!-- 48&#45;&gt;46 -->
<g id="edge60" class="edge">
<title>48&#45;&gt;46</title>
<path fill="none" stroke="black" d="M278.18,-950.44C268.17,-901.63 246.4,-758.35 314,-675.29 378.29,-596.3 508.39,-581.59 572.53,-579.32"/>
<polygon fill="black" stroke="black" points="572.7,-582.82 582.6,-579.05 572.51,-575.82 572.7,-582.82"/>
</g>
<!-- 2 -->
<g id="node22" class="node">
<title>2</title>
<defs>
<radialGradient id="r_2" cx="50%" cy="50%" r="75%" fx="50%" fy="50%">
<stop offset="0" style="stop-color:coral;stop-opacity:1.;"/>
<stop offset="1" style="stop-color:white;stop-opacity:1.;"/>
</radialGradient>
</defs>
<ellipse fill="url(#r_2)" stroke="black" cx="701" cy="-701.29" rx="27" ry="18"/>
<text text-anchor="middle" x="701" y="-697.59" font-family="Times,serif" font-size="14.00">2</text>
</g>
<!-- 2&#45;&gt;46 -->
<g id="edge3" class="edge">
<title>2&#45;&gt;46</title>
<path fill="none" stroke="black" d="M689.47,-684.96C673.9,-664.26 645.99,-627.15 627.74,-602.87"/>
<polygon fill="black" stroke="black" points="630.53,-600.76 621.72,-594.87 624.93,-604.97 630.53,-600.76"/>
</g>
<!-- 4 -->
<g id="node23" class="node">
<title>4</title>
<defs>
<radialGradient id="r_3" cx="50%" cy="50%" r="75%" fx="50%" fy="50%">
<stop offset="0" style="stop-color:coral;stop-opacity:1.;"/>
<stop offset="1" style="stop-color:white;stop-opacity:1.;"/>
</radialGradient>
</defs>
<ellipse fill="url(#r_3)" stroke="black" cx="904" cy="-968.29" rx="27" ry="18"/>
<text text-anchor="middle" x="904" y="-964.59" font-family="Times,serif" font-size="14.00">4</text>
</g>
<!-- 4&#45;&gt;46 -->
<g id="edge6" class="edge">
<title>4&#45;&gt;46</title>
<path fill="none" stroke="black" d="M917.75,-952.36C925.96,-942.39 935.62,-928.54 940,-914.29 953.8,-869.41 919.28,-758.46 917,-755.29 847.85,-659.2 708.86,-608.05 644.35,-588.63"/>
<polygon fill="black" stroke="black" points="645.24,-585.24 634.66,-585.78 643.27,-591.96 645.24,-585.24"/>
</g>
<!-- 5 -->
<g id="node24" class="node">
<title>5</title>
<defs>
<radialGradient id="r_4" cx="50%" cy="50%" r="75%" fx="50%" fy="50%">
<stop offset="0" style="stop-color:coral;stop-opacity:1.;"/>
<stop offset="1" style="stop-color:white;stop-opacity:1.;"/>
</radialGradient>
</defs>
<ellipse fill="url(#r_4)" stroke="black" cx="1014" cy="-701.29" rx="27" ry="18"/>
<text text-anchor="middle" x="1014" y="-697.59" font-family="Times,serif" font-size="14.00">5</text>
</g>
<!-- 5&#45;&gt;46 -->
<g id="edge7" class="edge">
<title>5&#45;&gt;46</title>
<path fill="none" stroke="black" d="M995.83,-687.65C988.92,-683.27 980.82,-678.62 973,-675.29 858.31,-626.38 712.37,-596.97 645.89,-585.22"/>
<polygon fill="black" stroke="black" points="646.37,-581.75 635.92,-583.48 645.17,-588.65 646.37,-581.75"/>
</g>
<!-- 6&#45;&gt;46 -->
<g id="edge8" class="edge">
<title>6&#45;&gt;46</title>
<path fill="none" stroke="black" d="M744.16,-881.62C738.22,-877.24 731.16,-872.87 724,-870.29 704.07,-863.11 643.85,-877.4 629,-862.29 560.89,-793.01 586.47,-662.44 601.79,-606.19"/>
<polygon fill="black" stroke="black" points="605.24,-606.85 604.6,-596.27 598.51,-604.94 605.24,-606.85"/>
</g>
<!-- 38 -->
<g id="node26" class="node">
<title>38</title>
<defs>
<radialGradient id="r_5" cx="50%" cy="50%" r="75%" fx="50%" fy="50%">
<stop offset="0" style="stop-color:coral;stop-opacity:1.;"/>
<stop offset="1" style="stop-color:white;stop-opacity:1.;"/>
</radialGradient>
</defs>
<ellipse fill="url(#r_5)" stroke="black" cx="1086" cy="-701.29" rx="27" ry="18"/>
<text text-anchor="middle" x="1086" y="-697.59" font-family="Times,serif" font-size="14.00">38</text>
</g>
<!-- 38&#45;&gt;46 -->
<g id="edge46" class="edge">
<title>38&#45;&gt;46</title>
<path fill="none" stroke="black" d="M1069.6,-686.88C1063.71,-682.63 1056.84,-678.27 1050,-675.29 908.81,-613.77 724.38,-590.08 646.86,-582.43"/>
<polygon fill="black" stroke="black" points="646.93,-578.92 636.64,-581.46 646.27,-585.89 646.93,-578.92"/>
</g>
<!-- 41 -->
<g id="node27" class="node">
<title>41</title>
<defs>
<radialGradient id="r_6" cx="50%" cy="50%" r="75%" fx="50%" fy="50%">
<stop offset="0" style="stop-color:coral;stop-opacity:1.;"/>
<stop offset="1" style="stop-color:white;stop-opacity:1.;"/>
</radialGradient>
</defs>
<ellipse fill="url(#r_6)" stroke="black" cx="809" cy="-773.29" rx="27" ry="18"/>
<text text-anchor="middle" x="809" y="-769.59" font-family="Times,serif" font-size="14.00">41</text>
</g>
<!-- 41&#45;&gt;2 -->
<g id="edge49" class="edge">
<title>41&#45;&gt;2</title>
<path fill="none" stroke="black" d="M790.19,-760.1C773,-748.95 747.38,-732.35 728.01,-719.79"/>
<polygon fill="black" stroke="black" points="729.89,-716.84 719.6,-714.34 726.08,-722.72 729.89,-716.84"/>
</g>
<!-- 55 -->
<g id="node28" class="node">
<title>55</title>
<defs>
<radialGradient id="r_7" cx="50%" cy="50%" r="75%" fx="50%" fy="50%">
<stop offset="0" style="stop-color:coral;stop-opacity:1.;"/>
<stop offset="1" style="stop-color:white;stop-opacity:1.;"/>
</radialGradient>
</defs>
<ellipse fill="url(#r_7)" stroke="black" cx="665" cy="-773.29" rx="27" ry="18"/>
<text text-anchor="middle" x="665" y="-769.59" font-family="Times,serif" font-size="14.00">55</text>
</g>
<!-- 55&#45;&gt;2 -->
<g id="edge71" class="edge">
<title>55&#45;&gt;2</title>
<path fill="none" stroke="black" d="M673.35,-756.05C677.71,-747.57 683.15,-737 688.04,-727.49"/>
<polygon fill="black" stroke="black" points="691.23,-728.93 692.7,-718.44 685.01,-725.73 691.23,-728.93"/>
</g>
<!-- 56 -->
<g id="node29" class="node">
<title>56</title>
<defs>
<radialGradient id="r_8" cx="50%" cy="50%" r="75%" fx="50%" fy="50%">
<stop offset="0" style="stop-color:coral;stop-opacity:1.;"/>
<stop offset="1" style="stop-color:white;stop-opacity:1.;"/>
</radialGradient>
</defs>
<ellipse fill="url(#r_8)" stroke="black" cx="842" cy="-1512.29" rx="27" ry="18"/>
<text text-anchor="middle" x="842" y="-1508.59" font-family="Times,serif" font-size="14.00">56</text>
</g>
<!-- 56&#45;&gt;16 -->
<g id="edge72" class="edge">
<title>56&#45;&gt;16</title>
<path fill="none" stroke="black" d="M828.43,-1496.44C819.69,-1486.88 808.17,-1474.28 798.34,-1463.54"/>
<polygon fill="black" stroke="black" points="800.88,-1461.13 791.55,-1456.11 795.72,-1465.85 800.88,-1461.13"/>
</g>
<!-- 58&#45;&gt;46 -->
<g id="edge76" class="edge">
<title>58&#45;&gt;46</title>
<path fill="none" stroke="black" d="M39.68,-880.23C73.84,-840.62 172.29,-732.65 277,-675.29 376.47,-620.8 510.01,-594.5 573.51,-584.43"/>
<polygon fill="black" stroke="black" points="574.09,-587.88 583.44,-582.89 573.03,-580.96 574.09,-587.88"/>
</g>
<!-- 61 -->
<g id="node31" class="node">
<title>61</title>
<defs>
<radialGradient id="r_9" cx="50%" cy="50%" r="75%" fx="50%" fy="50%">
<stop offset="0" style="stop-color:coral;stop-opacity:1.;"/>
<stop offset="1" style="stop-color:white;stop-opacity:1.;"/>
</radialGradient>
</defs>
<ellipse fill="url(#r_9)" stroke="black" cx="1014" cy="-896.29" rx="27" ry="18"/>
<text text-anchor="middle" x="1014" y="-892.59" font-family="Times,serif" font-size="14.00">61</text>
</g>
<!-- 21 -->
<g id="node48" class="node">
<title>21</title>
<ellipse fill="none" stroke="black" cx="1037" cy="-773.29" rx="27" ry="18"/>
<text text-anchor="middle" x="1037" y="-769.59" font-family="Times,serif" font-size="14.00">21</text>
</g>
<!-- 61&#45;&gt;21 -->
<g id="edge78" class="edge">
<title>61&#45;&gt;21</title>
<path fill="none" stroke="black" d="M1017.25,-878.21C1021.05,-858.21 1027.39,-824.83 1031.86,-801.31"/>
<polygon fill="black" stroke="black" points="1035.34,-801.76 1033.77,-791.28 1028.46,-800.45 1035.34,-801.76"/>
</g>
<!-- 51 -->
<g id="node32" class="node">
<title>51</title>
<ellipse fill="none" stroke="black" cx="778" cy="-1325.29" rx="27" ry="18"/>
<text text-anchor="middle" x="778" y="-1321.59" font-family="Times,serif" font-size="14.00">51</text>
</g>
<!-- 45 -->
<g id="node33" class="node">
<title>45</title>
<ellipse fill="none" stroke="black" cx="778" cy="-1210.29" rx="27" ry="18"/>
<text text-anchor="middle" x="778" y="-1206.59" font-family="Times,serif" font-size="14.00">45</text>
</g>
<!-- 51&#45;&gt;45 -->
<g id="edge62" class="edge">
<title>51&#45;&gt;45</title>
<path fill="none" stroke="black" d="M778,-1307.13C778,-1288.96 778,-1260.01 778,-1238.68"/>
<polygon fill="black" stroke="black" points="781.5,-1238.61 778,-1228.61 774.5,-1238.61 781.5,-1238.61"/>
</g>
<!-- 57 -->
<g id="node34" class="node">
<title>57</title>
<ellipse fill="none" stroke="black" cx="724" cy="-1138.29" rx="27" ry="18"/>
<text text-anchor="middle" x="724" y="-1134.59" font-family="Times,serif" font-size="14.00">57</text>
</g>
<!-- 45&#45;&gt;57 -->
<g id="edge55" class="edge">
<title>45&#45;&gt;57</title>
<path fill="none" stroke="black" d="M766.02,-1193.75C759.02,-1184.69 750.06,-1173.08 742.21,-1162.9"/>
<polygon fill="black" stroke="black" points="744.83,-1160.56 735.95,-1154.78 739.29,-1164.84 744.83,-1160.56"/>
</g>
<!-- 22 -->
<g id="node37" class="node">
<title>22</title>
<ellipse fill="none" stroke="black" cx="832" cy="-1138.29" rx="27" ry="18"/>
<text text-anchor="middle" x="832" y="-1134.59" font-family="Times,serif" font-size="14.00">22</text>
</g>
<!-- 45&#45;&gt;22 -->
<g id="edge56" class="edge">
<title>45&#45;&gt;22</title>
<path fill="none" stroke="black" d="M789.98,-1193.75C796.98,-1184.69 805.94,-1173.08 813.79,-1162.9"/>
<polygon fill="black" stroke="black" points="816.71,-1164.84 820.05,-1154.78 811.17,-1160.56 816.71,-1164.84"/>
</g>
<!-- 57&#45;&gt;32 -->
<g id="edge73" class="edge">
<title>57&#45;&gt;32</title>
<path fill="none" stroke="black" d="M720.35,-1120.26C714.1,-1091.07 701.29,-1031.3 693.8,-996.35"/>
<polygon fill="black" stroke="black" points="697.18,-995.41 691.66,-986.37 690.33,-996.88 697.18,-995.41"/>
</g>
<!-- 20 -->
<g id="node35" class="node">
<title>20</title>
<ellipse fill="none" stroke="black" cx="616" cy="-968.29" rx="27" ry="18"/>
<text text-anchor="middle" x="616" y="-964.59" font-family="Times,serif" font-size="14.00">20</text>
</g>
<!-- 57&#45;&gt;20 -->
<g id="edge75" class="edge">
<title>57&#45;&gt;20</title>
<path fill="none" stroke="black" d="M697.64,-1134.37C682.29,-1131.32 663.71,-1125.07 652,-1112.29 622.92,-1080.54 616.51,-1028.79 615.54,-997.02"/>
<polygon fill="black" stroke="black" points="619.03,-996.63 615.39,-986.69 612.03,-996.73 619.03,-996.63"/>
</g>
<!-- 44 -->
<g id="node36" class="node">
<title>44</title>
<ellipse fill="none" stroke="black" cx="760" cy="-968.29" rx="27" ry="18"/>
<text text-anchor="middle" x="760" y="-964.59" font-family="Times,serif" font-size="14.00">44</text>
</g>
<!-- 57&#45;&gt;44 -->
<g id="edge74" class="edge">
<title>57&#45;&gt;44</title>
<path fill="none" stroke="black" d="M727.65,-1120.26C733.9,-1091.07 746.71,-1031.3 754.2,-996.35"/>
<polygon fill="black" stroke="black" points="757.67,-996.88 756.34,-986.37 750.82,-995.41 757.67,-996.88"/>
</g>
<!-- 20&#45;&gt;35 -->
<g id="edge18" class="edge">
<title>20&#45;&gt;35</title>
<path fill="none" stroke="black" d="M611.16,-950.34C608.9,-942.43 606.15,-932.83 603.63,-923.98"/>
<polygon fill="black" stroke="black" points="606.91,-922.73 600.8,-914.08 600.18,-924.65 606.91,-922.73"/>
</g>
<!-- 20&#45;&gt;55 -->
<g id="edge19" class="edge">
<title>20&#45;&gt;55</title>
<path fill="none" stroke="black" d="M621.46,-950.18C624.68,-939.83 628.76,-926.36 632,-914.29 642.51,-875.15 652.95,-829.38 659.19,-801.11"/>
<polygon fill="black" stroke="black" points="662.65,-801.7 661.37,-791.18 655.81,-800.2 662.65,-801.7"/>
</g>
<!-- 44&#45;&gt;8 -->
<g id="edge53" class="edge">
<title>44&#45;&gt;8</title>
<path fill="none" stroke="black" d="M745.43,-953.12C735.25,-943.23 721.48,-929.83 709.97,-918.65"/>
<polygon fill="black" stroke="black" points="712.41,-916.13 702.8,-911.67 707.53,-921.15 712.41,-916.13"/>
</g>
<!-- 29 -->
<g id="node38" class="node">
<title>29</title>
<ellipse fill="none" stroke="black" cx="832" cy="-896.29" rx="27" ry="18"/>
<text text-anchor="middle" x="832" y="-892.59" font-family="Times,serif" font-size="14.00">29</text>
</g>
<!-- 44&#45;&gt;29 -->
<g id="edge54" class="edge">
<title>44&#45;&gt;29</title>
<path fill="none" stroke="black" d="M774.57,-953.12C784.75,-943.23 798.52,-929.83 810.03,-918.65"/>
<polygon fill="black" stroke="black" points="812.47,-921.15 817.2,-911.67 807.59,-916.13 812.47,-921.15"/>
</g>
<!-- 22&#45;&gt;37 -->
<g id="edge22" class="edge">
<title>22&#45;&gt;37</title>
<path fill="none" stroke="black" d="M832,-1120.26C832,-1091.2 832,-1031.81 832,-996.81"/>
<polygon fill="black" stroke="black" points="835.5,-996.37 832,-986.37 828.5,-996.37 835.5,-996.37"/>
</g>
<!-- 22&#45;&gt;4 -->
<g id="edge23" class="edge">
<title>22&#45;&gt;4</title>
<path fill="none" stroke="black" d="M852.87,-1126.49C858.5,-1122.68 864.1,-1117.92 868,-1112.29 892.23,-1077.26 900.17,-1027.36 902.76,-996.71"/>
<polygon fill="black" stroke="black" points="906.25,-996.96 903.47,-986.73 899.27,-996.46 906.25,-996.96"/>
</g>
<!-- 29&#45;&gt;47 -->
<g id="edge38" class="edge">
<title>29&#45;&gt;47</title>
<path fill="none" stroke="black" d="M838.81,-878.46C847,-858.24 860.84,-824.06 870.43,-800.4"/>
<polygon fill="black" stroke="black" points="873.74,-801.55 874.24,-790.97 867.25,-798.93 873.74,-801.55"/>
</g>
<!-- 29&#45;&gt;41 -->
<g id="edge36" class="edge">
<title>29&#45;&gt;41</title>
<path fill="none" stroke="black" d="M828.75,-878.21C824.95,-858.21 818.61,-824.83 814.14,-801.31"/>
<polygon fill="black" stroke="black" points="817.54,-800.45 812.23,-791.28 810.66,-801.76 817.54,-800.45"/>
</g>
<!-- 15 -->
<g id="node39" class="node">
<title>15</title>
<ellipse fill="none" stroke="black" cx="737" cy="-773.29" rx="27" ry="18"/>
<text text-anchor="middle" x="737" y="-769.59" font-family="Times,serif" font-size="14.00">15</text>
</g>
<!-- 29&#45;&gt;15 -->
<g id="edge37" class="edge">
<title>29&#45;&gt;15</title>
<path fill="none" stroke="black" d="M815.02,-882.08C809.2,-877.95 802.51,-873.6 796,-870.29 786.35,-865.38 780.86,-869.73 773,-862.29 755.84,-846.02 746.61,-820.4 741.81,-801"/>
<polygon fill="black" stroke="black" points="745.22,-800.22 739.63,-791.22 738.39,-801.74 745.22,-800.22"/>
</g>
<!-- 15&#45;&gt;2 -->
<g id="edge12" class="edge">
<title>15&#45;&gt;2</title>
<path fill="none" stroke="black" d="M728.65,-756.05C724.29,-747.57 718.85,-737 713.96,-727.49"/>
<polygon fill="black" stroke="black" points="716.99,-725.73 709.3,-718.44 710.77,-728.93 716.99,-725.73"/>
</g>
<!-- 28 -->
<g id="node40" class="node">
<title>28</title>
<ellipse fill="none" stroke="black" cx="482" cy="-1210.29" rx="27" ry="18"/>
<text text-anchor="middle" x="482" y="-1206.59" font-family="Times,serif" font-size="14.00">28</text>
</g>
<!-- 54 -->
<g id="node41" class="node">
<title>54</title>
<ellipse fill="none" stroke="black" cx="462" cy="-1138.29" rx="27" ry="18"/>
<text text-anchor="middle" x="462" y="-1134.59" font-family="Times,serif" font-size="14.00">54</text>
</g>
<!-- 28&#45;&gt;54 -->
<g id="edge34" class="edge">
<title>28&#45;&gt;54</title>
<path fill="none" stroke="black" d="M477.16,-1192.34C474.9,-1184.43 472.15,-1174.83 469.63,-1165.98"/>
<polygon fill="black" stroke="black" points="472.91,-1164.73 466.8,-1156.08 466.18,-1166.65 472.91,-1164.73"/>
</g>
<!-- 43 -->
<g id="node43" class="node">
<title>43</title>
<ellipse fill="none" stroke="black" cx="425" cy="-896.29" rx="27" ry="18"/>
<text text-anchor="middle" x="425" y="-892.59" font-family="Times,serif" font-size="14.00">43</text>
</g>
<!-- 28&#45;&gt;43 -->
<g id="edge33" class="edge">
<title>28&#45;&gt;43</title>
<path fill="none" stroke="black" d="M493.44,-1193.82C506.23,-1175.47 526.18,-1143.42 534,-1112.29 551.54,-1042.46 572.19,-1011.33 534,-950.29 518.11,-924.89 486.18,-911.35 460.96,-904.33"/>
<polygon fill="black" stroke="black" points="461.54,-900.87 450.98,-901.79 459.81,-907.65 461.54,-900.87"/>
</g>
<!-- 3 -->
<g id="node44" class="node">
<title>3</title>
<ellipse fill="none" stroke="black" cx="354" cy="-1138.29" rx="27" ry="18"/>
<text text-anchor="middle" x="354" y="-1134.59" font-family="Times,serif" font-size="14.00">3</text>
</g>
<!-- 28&#45;&gt;3 -->
<g id="edge35" class="edge">
<title>28&#45;&gt;3</title>
<path fill="none" stroke="black" d="M461.72,-1198.2C440.56,-1186.63 407.19,-1168.38 383.2,-1155.25"/>
<polygon fill="black" stroke="black" points="384.64,-1152.06 374.19,-1150.33 381.28,-1158.2 384.64,-1152.06"/>
</g>
<!-- 54&#45;&gt;11 -->
<g id="edge68" class="edge">
<title>54&#45;&gt;11</title>
<path fill="none" stroke="black" d="M465.65,-1120.26C471.9,-1091.07 484.71,-1031.3 492.2,-996.35"/>
<polygon fill="black" stroke="black" points="495.67,-996.88 494.34,-986.37 488.82,-995.41 495.67,-996.88"/>
</g>
<!-- 54&#45;&gt;48 -->
<g id="edge70" class="edge">
<title>54&#45;&gt;48</title>
<path fill="none" stroke="black" d="M437.49,-1130.72C423.64,-1127.21 405.95,-1123.05 390,-1120.29 374.14,-1117.55 330.13,-1122.87 318,-1112.29 285.07,-1083.56 280.05,-1029.56 280.36,-996.77"/>
<polygon fill="black" stroke="black" points="283.86,-996.62 280.64,-986.53 276.87,-996.43 283.86,-996.62"/>
</g>
<!-- 31 -->
<g id="node42" class="node">
<title>31</title>
<ellipse fill="none" stroke="black" cx="426" cy="-968.29" rx="27" ry="18"/>
<text text-anchor="middle" x="426" y="-964.59" font-family="Times,serif" font-size="14.00">31</text>
</g>
<!-- 54&#45;&gt;31 -->
<g id="edge69" class="edge">
<title>54&#45;&gt;31</title>
<path fill="none" stroke="black" d="M458.35,-1120.26C452.1,-1091.07 439.29,-1031.3 431.8,-996.35"/>
<polygon fill="black" stroke="black" points="435.18,-995.41 429.66,-986.37 428.33,-996.88 435.18,-995.41"/>
</g>
<!-- 31&#45;&gt;43 -->
<g id="edge39" class="edge">
<title>31&#45;&gt;43</title>
<path fill="none" stroke="black" d="M425.75,-949.99C425.64,-942.27 425.51,-933 425.39,-924.4"/>
<polygon fill="black" stroke="black" points="428.89,-924.34 425.24,-914.39 421.89,-924.44 428.89,-924.34"/>
</g>
<!-- 43&#45;&gt;9 -->
<g id="edge52" class="edge">
<title>43&#45;&gt;9</title>
<path fill="none" stroke="black" d="M427.96,-878.21C431.44,-858.21 437.23,-824.83 441.31,-801.31"/>
<polygon fill="black" stroke="black" points="444.79,-801.73 443.05,-791.28 437.89,-800.54 444.79,-801.73"/>
</g>
<!-- 43&#45;&gt;34 -->
<g id="edge51" class="edge">
<title>43&#45;&gt;34</title>
<path fill="none" stroke="black" d="M447.68,-886.41C459.24,-880.92 472.76,-872.89 482,-862.29 497.29,-844.76 506.65,-819.87 511.98,-801.03"/>
<polygon fill="black" stroke="black" points="515.39,-801.83 514.54,-791.27 508.62,-800.05 515.39,-801.83"/>
</g>
<!-- 52 -->
<g id="node46" class="node">
<title>52</title>
<ellipse fill="none" stroke="black" cx="374" cy="-773.29" rx="27" ry="18"/>
<text text-anchor="middle" x="374" y="-769.59" font-family="Times,serif" font-size="14.00">52</text>
</g>
<!-- 43&#45;&gt;52 -->
<g id="edge50" class="edge">
<title>43&#45;&gt;52</title>
<path fill="none" stroke="black" d="M417.4,-878.89C414.99,-873.61 412.34,-867.72 410,-862.29 401.09,-841.64 391.46,-818.04 384.41,-800.48"/>
<polygon fill="black" stroke="black" points="387.54,-798.89 380.58,-790.91 381.05,-801.5 387.54,-798.89"/>
</g>
<!-- 3&#45;&gt;36 -->
<g id="edge4" class="edge">
<title>3&#45;&gt;36</title>
<path fill="none" stroke="black" d="M326.73,-1138.06C273.47,-1138.98 158.32,-1137.85 130,-1112.29 97.81,-1083.23 94.76,-1029.34 96.31,-996.66"/>
<polygon fill="black" stroke="black" points="99.82,-996.66 96.97,-986.45 92.83,-996.21 99.82,-996.66"/>
</g>
<!-- 26 -->
<g id="node45" class="node">
<title>26</title>
<ellipse fill="none" stroke="black" cx="354" cy="-968.29" rx="27" ry="18"/>
<text text-anchor="middle" x="354" y="-964.59" font-family="Times,serif" font-size="14.00">26</text>
</g>
<!-- 3&#45;&gt;26 -->
<g id="edge5" class="edge">
<title>3&#45;&gt;26</title>
<path fill="none" stroke="black" d="M354,-1120.26C354,-1091.2 354,-1031.81 354,-996.81"/>
<polygon fill="black" stroke="black" points="357.5,-996.37 354,-986.37 350.5,-996.37 357.5,-996.37"/>
</g>
<!-- 26&#45;&gt;9 -->
<g id="edge28" class="edge">
<title>26&#45;&gt;9</title>
<path fill="none" stroke="black" d="M375.34,-957.07C406.2,-942.23 459.76,-916.29 461,-914.29 482.66,-879.39 469.43,-830 457.77,-800.17"/>
<polygon fill="black" stroke="black" points="460.98,-798.77 453.94,-790.85 454.51,-801.43 460.98,-798.77"/>
</g>
<!-- 26&#45;&gt;34 -->
<g id="edge29" class="edge">
<title>26&#45;&gt;34</title>
<path fill="none" stroke="black" d="M375.22,-957.01C380.05,-954.74 385.18,-952.39 390,-950.29 429.5,-933.08 451.35,-946.46 480,-914.29 508.02,-882.83 515.65,-832.71 517.57,-801.74"/>
<polygon fill="black" stroke="black" points="521.07,-801.8 518.03,-791.65 514.08,-801.48 521.07,-801.8"/>
</g>
<!-- 26&#45;&gt;52 -->
<g id="edge30" class="edge">
<title>26&#45;&gt;52</title>
<path fill="none" stroke="black" d="M355.77,-950.16C359.25,-916.61 366.98,-842 371.17,-801.58"/>
<polygon fill="black" stroke="black" points="374.68,-801.69 372.23,-791.38 367.72,-800.96 374.68,-801.69"/>
</g>
<!-- 52&#45;&gt;24 -->
<g id="edge63" class="edge">
<title>52&#45;&gt;24</title>
<path fill="none" stroke="black" d="M374,-754.99C374,-747.27 374,-738 374,-729.4"/>
<polygon fill="black" stroke="black" points="377.5,-729.39 374,-719.39 370.5,-729.39 377.5,-729.39"/>
</g>
<!-- 52&#45;&gt;14 -->
<g id="edge64" class="edge">
<title>52&#45;&gt;14</title>
<path fill="none" stroke="black" d="M390.4,-758.46C402.64,-748.13 419.55,-733.87 433.27,-722.3"/>
<polygon fill="black" stroke="black" points="435.53,-724.97 440.92,-715.85 431.02,-719.62 435.53,-724.97"/>
</g>
<!-- 40 -->
<g id="node47" class="node">
<title>40</title>
<ellipse fill="none" stroke="black" cx="1014" cy="-968.29" rx="27" ry="18"/>
<text text-anchor="middle" x="1014" y="-964.59" font-family="Times,serif" font-size="14.00">40</text>
</g>
<!-- 40&#45;&gt;61 -->
<g id="edge48" class="edge">
<title>40&#45;&gt;61</title>
<path fill="none" stroke="black" d="M1014,-949.99C1014,-942.27 1014,-933 1014,-924.4"/>
<polygon fill="black" stroke="black" points="1017.5,-924.39 1014,-914.39 1010.5,-924.39 1017.5,-924.39"/>
</g>
<!-- 40&#45;&gt;21 -->
<g id="edge47" class="edge">
<title>40&#45;&gt;21</title>
<path fill="none" stroke="black" d="M1027.75,-952.36C1035.96,-942.39 1045.62,-928.54 1050,-914.29 1061.76,-876.05 1053.14,-829.4 1045.41,-800.78"/>
<polygon fill="black" stroke="black" points="1048.75,-799.75 1042.64,-791.09 1042.02,-801.67 1048.75,-799.75"/>
</g>
<!-- 21&#45;&gt;5 -->
<g id="edge20" class="edge">
<title>21&#45;&gt;5</title>
<path fill="none" stroke="black" d="M1031.43,-755.34C1028.8,-747.35 1025.61,-737.62 1022.67,-728.69"/>
<polygon fill="black" stroke="black" points="1025.96,-727.49 1019.52,-719.08 1019.31,-729.67 1025.96,-727.49"/>
</g>
<!-- 21&#45;&gt;38 -->
<g id="edge21" class="edge">
<title>21&#45;&gt;38</title>
<path fill="none" stroke="black" d="M1047.87,-756.75C1054.16,-747.78 1062.19,-736.31 1069.26,-726.21"/>
<polygon fill="black" stroke="black" points="1072.29,-727.98 1075.16,-717.78 1066.55,-723.97 1072.29,-727.98"/>
</g>
<!-- 46&#45;&gt;13 -->
<g id="edge59" class="edge">
<title>46&#45;&gt;13</title>
<path fill="none" stroke="black" d="M595.43,-563.12C585.25,-553.23 571.48,-539.83 559.97,-528.65"/>
<polygon fill="black" stroke="black" points="562.41,-526.13 552.8,-521.67 557.53,-531.15 562.41,-526.13"/>
</g>
<!-- 27 -->
<g id="node50" class="node">
<title>27</title>
<ellipse fill="none" stroke="black" cx="610" cy="-506.29" rx="27" ry="18"/>
<text text-anchor="middle" x="610" y="-502.59" font-family="Times,serif" font-size="14.00">27</text>
</g>
<!-- 46&#45;&gt;27 -->
<g id="edge57" class="edge">
<title>46&#45;&gt;27</title>
<path fill="none" stroke="black" d="M610,-559.99C610,-552.27 610,-543 610,-534.4"/>
<polygon fill="black" stroke="black" points="613.5,-534.39 610,-524.39 606.5,-534.39 613.5,-534.39"/>
</g>
<!-- 53 -->
<g id="node51" class="node">
<title>53</title>
<ellipse fill="none" stroke="black" cx="742" cy="-506.29" rx="27" ry="18"/>
<text text-anchor="middle" x="742" y="-502.59" font-family="Times,serif" font-size="14.00">53</text>
</g>
<!-- 46&#45;&gt;53 -->
<g id="edge58" class="edge">
<title>46&#45;&gt;53</title>
<path fill="none" stroke="black" d="M630.62,-566.35C652.61,-554.69 687.63,-536.12 712.52,-522.92"/>
<polygon fill="black" stroke="black" points="714.32,-525.93 721.52,-518.15 711.05,-519.74 714.32,-525.93"/>
</g>
<!-- 27&#45;&gt;7 -->
<g id="edge31" class="edge">
<title>27&#45;&gt;7</title>
<path fill="none" stroke="black" d="M593.14,-491.95C580.64,-481.7 563.5,-466.87 550,-452.29 543.17,-444.91 536.35,-436.27 530.51,-428.4"/>
<polygon fill="black" stroke="black" points="533.3,-426.29 524.61,-420.24 527.63,-430.39 533.3,-426.29"/>
</g>
<!-- 39 -->
<g id="node52" class="node">
<title>39</title>
<polygon fill="#ffb90f" stroke="#ffb90f" points="661.44,-415.12 622.14,-415.12 610,-452.5 597.86,-415.12 558.56,-415.12 590.35,-392.02 578.21,-354.64 610,-377.75 641.79,-354.64 629.65,-392.02 661.44,-415.12"/>
<text text-anchor="middle" x="610" y="-399.87" font-family="Times,serif" font-size="14.00">39</text>
</g>
<!-- 27&#45;&gt;39 -->
<g id="edge32" class="edge">
<title>27&#45;&gt;39</title>
<path fill="none" stroke="black" d="M610,-488.2C610,-480.95 610,-472.03 610,-462.75"/>
<polygon fill="black" stroke="black" points="613.5,-462.59 610,-452.59 606.5,-462.59 613.5,-462.59"/>
</g>
<!-- 53&#45;&gt;12 -->
<g id="edge65" class="edge">
<title>53&#45;&gt;12</title>
<path fill="none" stroke="black" d="M761.22,-493.37C776.44,-483.42 797.77,-468.33 814,-452.29 821.15,-445.22 828.05,-436.66 833.86,-428.76"/>
<polygon fill="black" stroke="black" points="836.76,-430.72 839.7,-420.54 831.06,-426.66 836.76,-430.72"/>
</g>
<!-- 25 -->
<g id="node53" class="node">
<title>25</title>
<ellipse fill="none" stroke="black" cx="706" cy="-403.57" rx="27" ry="18"/>
<text text-anchor="middle" x="706" y="-399.87" font-family="Times,serif" font-size="14.00">25</text>
</g>
<!-- 53&#45;&gt;25 -->
<g id="edge67" class="edge">
<title>53&#45;&gt;25</title>
<path fill="none" stroke="black" d="M736.06,-488.66C730.43,-472.91 721.89,-449.03 715.35,-430.73"/>
<polygon fill="black" stroke="black" points="718.62,-429.47 711.95,-421.23 712.02,-431.82 718.62,-429.47"/>
</g>
<!-- 17 -->
<g id="node54" class="node">
<title>17</title>
<ellipse fill="none" stroke="black" cx="778" cy="-403.57" rx="27" ry="18"/>
<text text-anchor="middle" x="778" y="-399.87" font-family="Times,serif" font-size="14.00">17</text>
</g>
<!-- 53&#45;&gt;17 -->
<g id="edge66" class="edge">
<title>53&#45;&gt;17</title>
<path fill="none" stroke="black" d="M747.94,-488.66C753.57,-472.91 762.11,-449.03 768.65,-430.73"/>
<polygon fill="black" stroke="black" points="771.98,-431.82 772.05,-421.23 765.38,-429.47 771.98,-431.82"/>
</g>
<!-- 25&#45;&gt;30 -->
<g id="edge26" class="edge">
<title>25&#45;&gt;30</title>
<path fill="none" stroke="black" d="M706,-385.39C706,-363.25 706,-324.51 706,-298.35"/>
<polygon fill="black" stroke="black" points="709.5,-298.33 706,-288.33 702.5,-298.33 709.5,-298.33"/>
</g>
<!-- 42 -->
<g id="node55" class="node">
<title>42</title>
<polygon fill="#ffb90f" stroke="#ffb90f" points="661.44,-281.7 622.14,-281.7 610,-319.07 597.86,-281.7 558.56,-281.7 590.35,-258.59 578.21,-221.21 610,-244.32 641.79,-221.21 629.65,-258.59 661.44,-281.7"/>
<text text-anchor="middle" x="610" y="-266.44" font-family="Times,serif" font-size="14.00">42</text>
</g>
<!-- 25&#45;&gt;42 -->
<g id="edge27" class="edge">
<title>25&#45;&gt;42</title>
<path fill="none" stroke="black" d="M694.61,-386.98C677.83,-364.01 646.36,-320.93 626.89,-294.27"/>
<polygon fill="black" stroke="black" points="629.51,-291.92 620.79,-285.91 623.86,-296.05 629.51,-291.92"/>
</g>
<!-- 17&#45;&gt;50 -->
<g id="edge15" class="edge">
<title>17&#45;&gt;50</title>
<path fill="none" stroke="black" d="M786.83,-386.46C799.14,-363.99 821.57,-323.04 836.13,-296.47"/>
<polygon fill="black" stroke="black" points="839.36,-297.84 841.1,-287.39 833.23,-294.48 839.36,-297.84"/>
</g>
<!-- 60 -->
<g id="node56" class="node">
<title>60</title>
<ellipse fill="none" stroke="black" cx="896" cy="-167.43" rx="27" ry="18"/>
<text text-anchor="middle" x="896" y="-163.73" font-family="Times,serif" font-size="14.00">60</text>
</g>
<!-- 17&#45;&gt;60 -->
<g id="edge17" class="edge">
<title>17&#45;&gt;60</title>
<path fill="none" stroke="black" d="M787.45,-386.45C793.95,-376.41 803.31,-363.75 814,-354.86 841.5,-331.97 866.19,-348.65 886,-318.86 910.61,-281.85 906.97,-227.75 901.73,-195.52"/>
<polygon fill="black" stroke="black" points="905.14,-194.71 899.93,-185.48 898.25,-195.94 905.14,-194.71"/>
</g>
<!-- 23 -->
<g id="node57" class="node">
<title>23</title>
<ellipse fill="none" stroke="black" cx="778" cy="-270.14" rx="27" ry="18"/>
<text text-anchor="middle" x="778" y="-266.44" font-family="Times,serif" font-size="14.00">23</text>
</g>
<!-- 17&#45;&gt;23 -->
<g id="edge16" class="edge">
<title>17&#45;&gt;23</title>
<path fill="none" stroke="black" d="M778,-385.39C778,-363.25 778,-324.51 778,-298.35"/>
<polygon fill="black" stroke="black" points="781.5,-298.33 778,-288.33 774.5,-298.33 781.5,-298.33"/>
</g>
<!-- 62 -->
<g id="node59" class="node">
<title>62</title>
<polygon fill="#ffb90f" stroke="#ffb90f" points="866.44,-76.27 827.14,-76.27 815,-113.65 802.86,-76.27 763.56,-76.27 795.35,-53.16 783.21,-15.78 815,-38.89 846.79,-15.78 834.65,-53.16 866.44,-76.27"/>
<text text-anchor="middle" x="815" y="-61.01" font-family="Times,serif" font-size="14.00">62</text>
</g>
<!-- 60&#45;&gt;62 -->
<g id="edge77" class="edge">
<title>60&#45;&gt;62</title>
<path fill="none" stroke="black" d="M883.7,-151.13C870.05,-134.16 847.92,-106.65 832.48,-87.45"/>
<polygon fill="black" stroke="black" points="835.11,-85.13 826.11,-79.53 829.65,-89.52 835.11,-85.13"/>
</g>
<!-- 23&#45;&gt;59 -->
<g id="edge25" class="edge">
<title>23&#45;&gt;59</title>
<path fill="none" stroke="black" d="M785.6,-252.51C792.86,-236.6 803.93,-212.37 812.32,-194"/>
<polygon fill="black" stroke="black" points="815.57,-195.3 816.55,-184.75 809.21,-192.39 815.57,-195.3"/>
</g>
<!-- 49 -->
<g id="node58" class="node">
<title>49</title>
<ellipse fill="none" stroke="black" cx="752" cy="-167.43" rx="27" ry="18"/>
<text text-anchor="middle" x="752" y="-163.73" font-family="Times,serif" font-size="14.00">49</text>
</g>
<!-- 23&#45;&gt;49 -->
<g id="edge24" class="edge">
<title>23&#45;&gt;49</title>
<path fill="none" stroke="black" d="M773.59,-252.06C769.57,-236.48 763.56,-213.22 758.91,-195.18"/>
<polygon fill="black" stroke="black" points="762.23,-194.07 756.35,-185.26 755.46,-195.82 762.23,-194.07"/>
</g>
<!-- 49&#45;&gt;62 -->
<g id="edge61" class="edge">
<title>49&#45;&gt;62</title>
<path fill="none" stroke="black" d="M762.12,-150.25C772.17,-134.19 787.7,-109.36 799.34,-90.76"/>
<polygon fill="black" stroke="black" points="802.36,-92.52 804.69,-82.19 796.42,-88.81 802.36,-92.52"/>
</g>
<!-- 1 -->
<g id="node60" class="node">
<title>1</title>
<ellipse fill="#ffb90f" stroke="#ffb90f" cx="814" cy="-1656.29" rx="27" ry="18"/>
<text text-anchor="middle" x="814" y="-1652.59" font-family="Times,serif" font-size="14.00">1</text>
</g>
<!-- 1&#45;&gt;33 -->
<g id="edge2" class="edge">
<title>1&#45;&gt;33</title>
<path fill="none" stroke="black" d="M805.65,-1639.05C801.29,-1630.57 795.85,-1620 790.96,-1610.49"/>
<polygon fill="black" stroke="black" points="793.99,-1608.73 786.3,-1601.44 787.77,-1611.93 793.99,-1608.73"/>
</g>
<!-- 10 -->
<g id="node61" class="node">
<title>10</title>
<ellipse fill="none" stroke="black" cx="850" cy="-1584.29" rx="27" ry="18"/>
<text text-anchor="middle" x="850" y="-1580.59" font-family="Times,serif" font-size="14.00">10</text>
</g>
<!-- 1&#45;&gt;10 -->
<g id="edge1" class="edge">
<title>1&#45;&gt;10</title>
<path fill="none" stroke="black" d="M822.35,-1639.05C826.71,-1630.57 832.15,-1620 837.04,-1610.49"/>
<polygon fill="black" stroke="black" points="840.23,-1611.93 841.7,-1601.44 834.01,-1608.73 840.23,-1611.93"/>
</g>
<!-- 10&#45;&gt;56 -->
<g id="edge9" class="edge">
<title>10&#45;&gt;56</title>
<path fill="none" stroke="black" d="M848.02,-1565.99C847.14,-1558.27 846.08,-1549 845.1,-1540.4"/>
<polygon fill="black" stroke="black" points="848.57,-1539.93 843.95,-1530.39 841.61,-1540.73 848.57,-1539.93"/>
</g>
<!-- 10&#45;&gt;40 -->
<g id="edge10" class="edge">
<title>10&#45;&gt;40</title>
<path fill="none" stroke="black" d="M871.39,-1573.19C909.46,-1553.57 985,-1506.43 985,-1441.29 985,-1441.29 985,-1441.29 985,-1209.29 985,-1131.55 1000.18,-1040.66 1008.58,-996.35"/>
<polygon fill="black" stroke="black" points="1012.04,-996.86 1010.5,-986.37 1005.17,-995.53 1012.04,-996.86"/>
</g>
<!-- 16&#45;&gt;51 -->
<g id="edge13" class="edge">
<title>16&#45;&gt;51</title>
<path fill="none" stroke="black" d="M778,-1422.13C778,-1403.96 778,-1375.01 778,-1353.68"/>
<polygon fill="black" stroke="black" points="781.5,-1353.61 778,-1343.61 774.5,-1353.61 781.5,-1353.61"/>
</g>
<!-- 16&#45;&gt;28 -->
<g id="edge14" class="edge">
<title>16&#45;&gt;28</title>
<path fill="none" stroke="black" d="M750.98,-1439.66C698.77,-1439.85 586.55,-1437.45 557,-1414.29 501.82,-1371.04 487.23,-1282.97 483.38,-1238.41"/>
<polygon fill="black" stroke="black" points="486.86,-1238.04 482.63,-1228.33 479.88,-1238.56 486.86,-1238.04"/>
</g>
</g>
</svg>
